<svg width="2317" height="393" viewBox="0 0 2317 393" fill="none" xmlns="http://www.w3.org/2000/svg">
<g clip-path="url(#clip0_14238_1354)">
<path d="M0 81.3103C0 36.4039 36.4039 0 81.3103 0H311.69C356.596 0 393 36.4039 393 81.3103V311.69C393 356.596 356.596 393 311.69 393H81.3103C36.4039 393 0 356.596 0 311.69V81.3103Z" fill="#212120"/>
<path d="M88.0862 108.414C88.0862 89.7028 103.254 74.5345 121.966 74.5345H271.034C289.746 74.5345 304.914 89.7028 304.914 108.414V115.19C304.914 133.901 289.746 149.069 271.034 149.069H121.966C103.254 149.069 88.0862 133.901 88.0862 115.19V108.414Z" fill="white"/>
<path d="M88.0862 196.5C88.0862 177.789 103.254 162.621 121.966 162.621H271.034C289.746 162.621 304.914 177.789 304.914 196.5V203.276C304.914 221.987 289.746 237.155 271.034 237.155H121.966C103.254 237.155 88.0862 221.987 88.0862 203.276V196.5Z" fill="white"/>
<path d="M88.0862 284.586C88.0862 265.875 103.254 250.707 121.966 250.707H149.069C167.78 250.707 182.948 265.875 182.948 284.586V291.362C182.948 310.073 167.78 325.241 149.069 325.241H121.966C103.254 325.241 88.0862 310.073 88.0862 291.362V284.586Z" fill="white"/>
<path d="M1041.81 72.6968C1108.04 71.2058 1179.5 72.5738 1246.11 72.5585L1330.37 72.5485C1359.31 72.5365 1385.23 70.2334 1413.81 79.4589C1472.72 98.4776 1497.93 157.055 1477.48 213.794C1468.59 238.484 1451.16 253.85 1427.25 264.544C1400.83 274.625 1365.9 272.087 1337.34 272.091H1266.81L1100.73 272.047L1100.73 320.425L1041.76 320.437L1041.81 72.6968Z" fill="#222122"/>
<path d="M1114.34 125.784L1286.72 125.787L1342.63 125.777C1377.49 125.788 1429.16 124.144 1427.4 177.12C1426.97 189.795 1418.72 200.341 1409.09 208.252C1388.76 221.693 1370.74 219.376 1347.68 219.349L1292.25 219.269L1102.46 219.302C1102.9 188.543 1102.49 156.727 1102.49 125.883L1114.34 125.784Z" fill="#FAFAF8"/>
<path d="M628.74 74.1174C633.371 73.195 657.214 73.4378 662.847 73.4422L735.478 73.5383L1002.11 73.5277L1002.13 125.166L754.382 125.158H678.634C667.195 125.158 631.713 122.401 624.046 130.855C617.761 137.786 616.674 163.612 629.976 166.425C648.189 170.278 669.721 168.419 688.833 168.42L854.375 168.444C882.974 168.428 916.878 166.541 943.872 170.174C985.87 175.826 1006.94 206.571 1003.46 247.128C1001.72 267.349 1005.73 280.795 991.102 299.042C978.52 314.736 964.91 317.898 946.283 320.243C901.918 320.946 856.393 320.429 811.962 320.433L566.318 320.44L566.376 267.004L814.968 266.979C838.293 266.868 861.619 266.875 884.944 267.003C897.197 267.079 934.418 270.244 943.224 260.671C948.465 254.974 949.67 227.646 936.941 224.881C917.38 220.634 894.566 222.517 874.037 222.533L711.884 222.503C682.121 222.526 649.285 224.163 620.911 220.868C577.942 215.878 563.177 191.817 566.073 151.473C567.496 131.655 563.28 115.368 577.837 97.7921C591.43 81.3788 608.679 76.4263 628.74 74.1174Z" fill="#222122"/>
<path d="M1646.55 72.9233L1743.58 72.8867L1911.3 320.363L1839.03 320.44C1828.78 304.501 1817.07 287.823 1806.41 272.014C1786.79 272.239 1766.81 272.054 1747.16 272.064L1584.93 272.036L1552.62 320.391L1481.65 320.361L1646.55 72.9233Z" fill="#222122"/>
<path d="M1680.05 125.316L1708.32 125.341C1730.21 156.456 1751.76 187.812 1772.97 219.404C1753.63 220.128 1731.12 219.602 1711.53 219.62L1618.58 219.609L1680.05 125.316Z" fill="#FAFAF8"/>
<path d="M1943.27 72.6065L2027.34 72.6002L2257.58 252.686L2257.63 72.6006L2316.78 72.5508L2316.73 320.27L2306.05 320.431L2238.68 320.441C2195.52 284.475 2152.13 248.818 2108.47 213.47C2075.26 186.522 2037.53 155.535 2002.99 130.761C2003.67 193.553 2003.06 257.523 2003.02 320.399L1943.29 320.441C1942.43 238.484 1943.13 154.654 1943.27 72.6065Z" fill="#222122"/>
</g>
<defs>
<clipPath id="clip0_14238_1354">
<rect width="2317" height="393" fill="white"/>
</clipPath>
</defs>
</svg>
